<?xml version="1.0" encoding="utf-8"?>
<!-- Generator: Adobe Illustrator 21.1.0, SVG Export Plug-In . SVG Version: 6.00 Build 0)  -->
<svg version="1.1" id="Layer_1" xmlns="http://www.w3.org/2000/svg" xmlns:xlink="http://www.w3.org/1999/xlink" x="0px" y="0px"
	 viewBox="0 0 40 40" style="enable-background:new 0 0 40 40;" xml:space="preserve">
<style type="text/css">
	.st0{enable-background:new    ;}
	.st1{fill:#0D4B34;}
</style>
<g class="st0">
	<path class="st1" d="M12.2,15.7H9.6L9.2,17H7.1l2.6-8h2.6l2.5,8h-2.2L12.2,15.7z M10.1,14.1h1.7L11,11.2l0,0L10.1,14.1z"/>
	<path class="st1" d="M20.8,12.6v1.6h-5.4v-1.6H20.8z"/>
	<path class="st1" d="M27.9,9v1.3L24.6,15h3.3v2h-6.2v-1.3l3.4-4.8h-3.2V9H27.9z"/>
</g>
<g>
	<path class="st1" d="M25.2,22.4H8c-0.4,0-0.8,0.3-0.8,0.8S7.5,24,8,24h17.2c0.4,0,0.8-0.3,0.8-0.8S25.6,22.4,25.2,22.4z"/>
	<path class="st1" d="M8,27.3h15.4c0.4,0,0.8-0.3,0.8-0.8s-0.3-0.8-0.8-0.8H8c-0.4,0-0.8,0.3-0.8,0.8S7.6,27.3,8,27.3z"/>
	<path class="st1" d="M24.7,29.3H8c-0.4,0-0.8,0.3-0.8,0.8s0.3,0.8,0.8,0.8h16.7c0.4,0,0.8-0.3,0.8-0.8S25.1,29.3,24.7,29.3z"/>
	<path class="st1" d="M22.1,32.8H8c-0.4,0-0.8,0.3-0.8,0.8s0.3,0.8,0.8,0.8h14.1c0.4,0,0.8-0.3,0.8-0.8S22.5,32.8,22.1,32.8z"/>
	<path class="st1" d="M34.8,3.6h-4.5V2.4c0-0.4-0.3-0.8-0.8-0.8H5.2C4.8,1.7,4.4,2,4.4,2.4v35.1c0,0.4,0.3,0.8,0.8,0.8h24.4
		c0.4,0,0.8-0.3,0.8-0.8V34h2.8c0.4,0,0.8-0.3,0.8-0.8V26v-7.2v-6.5h0.9c0.4,0,0.8-0.3,0.8-0.8V4.3C35.6,3.9,35.2,3.6,34.8,3.6z
		 M32.4,25.3h-2v-5.7h2V25.3z M28.8,36.8H5.9V3.2h22.9V36.8z M30.3,32.5v-5.7h2v5.7H30.3z M32.4,18.1h-2v-5.7h2V18.1z M34.1,10.8
		h-3.7V5.1h3.7V10.8z"/>
</g>
</svg>
