<?xml version="1.0" encoding="utf-8"?>
<!-- Generator: Adobe Illustrator 21.1.0, SVG Export Plug-In . SVG Version: 6.00 Build 0)  -->
<svg version="1.1" id="Layer_1" xmlns="http://www.w3.org/2000/svg" xmlns:xlink="http://www.w3.org/1999/xlink" x="0px" y="0px"
	 viewBox="0 0 40 40" style="enable-background:new 0 0 40 40;" xml:space="preserve">
<style type="text/css">
	.st0{fill:#ADADAD;}
</style>
<path class="st0" d="M21.1,20L33.3,7.8c0.4-0.4,0.5-0.9,0.1-1.3s-0.9-0.2-1.3,0.1L20,18.9L7.8,6.7C7.4,6.3,6.9,6.2,6.6,6.6
	C6.2,6.9,6.3,7.5,6.7,7.8L18.9,20L6.7,32.2c-0.4,0.4-0.5,0.9-0.1,1.3c0.4,0.4,0.9,0.2,1.3-0.1L20,21.1l12.2,12.2
	c0.4,0.4,0.9,0.5,1.3,0.1c0.4-0.4,0.2-0.9-0.1-1.3L21.1,20z"/>
</svg>
