<?xml version="1.0" encoding="utf-8"?>
<!-- Generator: Adobe Illustrator 23.1.1, SVG Export Plug-In . SVG Version: 6.00 Build 0)  -->
<svg version="1.1" id="Layer_1" xmlns="http://www.w3.org/2000/svg" xmlns:xlink="http://www.w3.org/1999/xlink" x="0px" y="0px"
	 viewBox="0 0 40 40" style="enable-background:new 0 0 40 40;" xml:space="preserve">
<style type="text/css">
	.st0{fill:#FFFFFF;}
</style>
<path class="st0" d="M17.2,34.6c-0.1,0-0.3,0-0.4-0.1c-0.2-0.1-0.4-0.4-0.4-0.6l0-15.1L9.3,8.6C9.2,8.4,9.1,8.1,9.3,7.8
	s0.4-0.4,0.7-0.4h20.1c0.3,0,0.5,0.2,0.7,0.4c0.1,0.2,0.1,0.5-0.1,0.8l-7.1,10.1l0,12.2c0,0.3-0.2,0.5-0.4,0.7l-5.6,3
	C17.4,34.6,17.3,34.6,17.2,34.6z M11.4,8.9l6.4,9.1c0.1,0.1,0.1,0.3,0.1,0.4l0,14.1l4.1-2.2l0-12c0-0.2,0-0.3,0.1-0.4l6.4-9.1H11.4z
	"/>
</svg>
