<?xml version="1.0" encoding="utf-8"?>
<!-- Generator: Adobe Illustrator 23.1.1, SVG Export Plug-In . SVG Version: 6.00 Build 0)  -->
<svg version="1.1" id="Layer_1" xmlns="http://www.w3.org/2000/svg" xmlns:xlink="http://www.w3.org/1999/xlink" x="0px" y="0px"
	 viewBox="0 0 50 50" style="enable-background:new 0 0 50 50;" xml:space="preserve">
<style type="text/css">
	.st0{fill:#0D4B34;}
</style>
<path class="st0" d="M37,39.5H15.6c-1.2,0-2.1-0.9-2.1-2.1s0.9-2.1,2.1-2.1c0,0,0,0,0.1,0c0,0,0,0,0.1,0h22.9c0.4,0,0.7-0.3,0.7-0.6
	l2.4-15.1c0-0.2,0-0.4-0.2-0.6c-0.1-0.2-0.4-0.3-0.6-0.3h-2.5c0,0,0,0,0-0.1V4.9c0-0.2-0.1-0.5-0.3-0.6c-0.2-0.1-0.4-0.2-0.7-0.1
	l-1.2,0.4l0-0.3c0-0.2-0.1-0.4-0.2-0.5s-0.3-0.2-0.5-0.2c-0.1,0-1.8,0-4.7,0.4c-2.2,0.3-3.7,0.8-4.3,1.1c-0.6-0.3-2.1-0.8-4.3-1.1
	c-2.9-0.4-4.6-0.4-4.7-0.4c-0.4,0-0.8,0.3-0.8,0.8v0.3l-1.3-0.4c-0.2-0.1-0.5,0-0.7,0.1c-0.2,0.1-0.3,0.4-0.3,0.6v13.7
	c0,0,0,0,0,0.1h-1.4L12,13.3c-0.1-0.3-0.4-0.6-0.7-0.6H8.9c-0.4,0-0.8,0.3-0.8,0.8s0.3,0.8,0.8,0.8h1.8l1.1,5.4c0,0,0,0,0,0l3,14.3
	c-1.6,0.4-2.8,1.8-2.8,3.5c0,2,1.6,3.6,3.6,3.6h2.2c-0.4,0.6-0.6,1.2-0.6,2c0,1.9,1.6,3.5,3.5,3.5s3.5-1.6,3.5-3.5
	c0-0.7-0.2-1.4-0.6-2h10.7c-0.4,0.6-0.6,1.2-0.6,2c0,1.9,1.6,3.5,3.5,3.5c1.9,0,3.5-1.6,3.5-3.5S38.9,39.5,37,39.5z M37.1,6v12
	l-7.4,0.5c0.4-0.1,0.9-0.2,1.4-0.2c2.8-0.4,4.5-0.4,4.5-0.4c0.4,0,0.7-0.3,0.8-0.7l0-10.9L37.1,6z M27.3,6.3
	c0.6-0.2,1.9-0.6,3.8-0.9c1.7-0.2,3-0.3,3.8-0.4l0,11.3c-0.8,0-2.1,0.1-4,0.4c-1.6,0.2-2.7,0.5-3.5,0.8V6.3z M18.3,5.1
	c0.8,0,2.1,0.1,3.8,0.4c1.9,0.3,3.2,0.7,3.8,0.9v11.2c-0.8-0.3-2-0.6-3.5-0.8c-1.8-0.3-3.2-0.4-4-0.4V5.1z M16,6l0.8,0.2v10.9
	c0,0.4,0.3,0.7,0.7,0.8c0,0,1.7,0,4.5,0.4c0.5,0.1,1,0.2,1.4,0.2L16,18V6z M40.2,20.2L38,33.8H16.3l-2.9-13.6H40.2z M22.6,43
	c0,1.1-0.9,2-2,2s-2-0.9-2-2s0.9-2,2-2S22.6,41.9,22.6,43z M37,45c-1.1,0-2-0.9-2-2s0.9-2,2-2s2,0.9,2,2S38.1,45,37,45z"/>
</svg>
