<?xml version="1.0" encoding="utf-8"?>
<!-- Generator: Adobe Illustrator 21.1.0, SVG Export Plug-In . SVG Version: 6.00 Build 0)  -->
<svg version="1.1" id="Layer_1" xmlns="http://www.w3.org/2000/svg" xmlns:xlink="http://www.w3.org/1999/xlink" x="0px" y="0px"
	 viewBox="0 0 50 50" style="enable-background:new 0 0 50 50;" xml:space="preserve">
<style type="text/css">
	.st0{fill:#0D4B34;}
</style>
<path class="st0" d="M44.1,5.5L30.6,1.6c-0.2,0-0.3,0-0.5,0L5.9,10.7c-0.4,0.1-0.6,0.4-0.6,0.7l0,27.3c0,0.2,0.1,0.5,0.3,0.6
	c0.2,0.1,0.5,0.2,0.7,0.1l8.3-3.2c0.3-0.1,0.5-0.4,0.5-0.7V13.9l14.6-3.5l0,30.9l-20.9-2c-0.4,0-0.7,0.2-0.8,0.6
	c-0.1,0.4,0.1,0.7,0.5,0.9l21.6,7.7c0.1,0.1,0.2,0.1,0.4,0.1c0.1,0,0.1,0,0.2,0l13.5-3.7c0.3-0.1,0.4-0.3,0.5-0.5c0,0,0,0,0,0
	c0-0.1,0-0.2,0-0.2V6.2C44.7,5.9,44.5,5.6,44.1,5.5z M43.2,43.4l-12.7,3.5l-15.8-5.6l15.6,1.5c0.2,0,0.4,0,0.6-0.2
	c0.2-0.1,0.2-0.3,0.2-0.6l0-32.6c0-0.2-0.1-0.4-0.3-0.6c-0.2-0.1-0.4-0.2-0.6-0.1l-16.1,3.8c-0.3,0.1-0.6,0.4-0.6,0.7V35l-6.8,2.7
	l0-25.7l23.6-8.9l12.7,3.7V43.4z"/>
</svg>
