<?xml version="1.0" encoding="utf-8"?>
<!-- Generator: Adobe Illustrator 23.1.1, SVG Export Plug-In . SVG Version: 6.00 Build 0)  -->
<svg version="1.1" id="Layer_1" xmlns="http://www.w3.org/2000/svg" xmlns:xlink="http://www.w3.org/1999/xlink" x="0px" y="0px"
	 viewBox="0 0 50 50" style="enable-background:new 0 0 50 50;" xml:space="preserve">
<style type="text/css">
	.st0{fill:#0D4B34;}
</style>
<g>
	<path class="st0" d="M46.1,7.4h-9.5v-1c0-1.2-0.9-2.1-2.1-2.1s-2.1,0.9-2.1,2.1v1H17.6v-1c0-1.2-0.9-2.1-2.1-2.1s-2.1,0.9-2.1,2.1
		v1H3.9c-1.8,0-3.2,1.7-3.2,3.8V42c0,2.1,1.5,3.8,3.2,3.8h42.3c1.8,0,3.2-1.7,3.2-3.8V11.2C49.4,9.1,47.9,7.4,46.1,7.4z M33.9,6.4
		c0-0.3,0.3-0.6,0.6-0.6s0.6,0.3,0.6,0.6V10c0,0.3-0.3,0.6-0.6,0.6s-0.6-0.3-0.6-0.6V6.4z M14.9,6.4c0-0.3,0.3-0.6,0.6-0.6
		s0.6,0.3,0.6,0.6V10c0,0.3-0.3,0.6-0.6,0.6s-0.6-0.3-0.6-0.6V6.4z M3.9,8.9h9.5v1c0,1.2,0.9,2.1,2.1,2.1s2.1-0.9,2.1-2.1v-1h14.8v1
		c0,1.2,0.9,2.1,2.1,2.1s2.1-0.9,2.1-2.1v-1h9.5c1,0,1.7,1,1.7,2.3v3H2.1v-3C2.1,9.9,2.9,8.9,3.9,8.9z M46.1,44.2H3.9
		c-1,0-1.7-1-1.7-2.3V15.7h45.7V42C47.9,43.2,47.1,44.2,46.1,44.2z"/>
	<path class="st0" d="M13,18.3H7.3c-0.4,0-0.8,0.3-0.8,0.8v4.7c0,0.4,0.3,0.8,0.8,0.8H13c0.4,0,0.8-0.3,0.8-0.8V19
		C13.8,18.6,13.4,18.3,13,18.3z M12.3,22.9H8.1v-3.2h4.2V22.9z"/>
	<path class="st0" d="M22.7,18.3H17c-0.4,0-0.8,0.3-0.8,0.8v4.7c0,0.4,0.3,0.8,0.8,0.8h5.7c0.4,0,0.8-0.3,0.8-0.8v-4.7
		C23.5,18.6,23.2,18.3,22.7,18.3z M22,23h-4.2v-3.2H22V23z"/>
	<path class="st0" d="M32.4,18.3h-5.7c-0.4,0-0.8,0.3-0.8,0.8v4.7c0,0.4,0.3,0.8,0.8,0.8h5.7c0.4,0,0.8-0.3,0.8-0.8V19
		C33.2,18.6,32.9,18.3,32.4,18.3z M31.7,22.9h-4.2v-3.2h4.2V22.9z"/>
	<path class="st0" d="M42.1,18.3h-5.7c-0.4,0-0.8,0.3-0.8,0.8v4.7c0,0.4,0.3,0.8,0.8,0.8h5.7c0.4,0,0.8-0.3,0.8-0.8V19
		C42.9,18.6,42.6,18.3,42.1,18.3z M41.4,22.9h-4.2v-3.2h4.2V22.9z"/>
	<path class="st0" d="M13,26.9H7.3c-0.4,0-0.8,0.3-0.8,0.8v4.7c0,0.4,0.3,0.8,0.8,0.8H13c0.4,0,0.8-0.3,0.8-0.8v-4.7
		C13.8,27.3,13.4,26.9,13,26.9z M12.3,31.6H8.1v-3.2h4.2V31.6z"/>
	<path class="st0" d="M22.7,27H17c-0.4,0-0.8,0.3-0.8,0.8v4.7c0,0.4,0.3,0.8,0.8,0.8h5.7c0.4,0,0.8-0.3,0.8-0.8v-4.7
		C23.5,27.3,23.2,27,22.7,27z M22,31.6h-4.2v-3.2H22V31.6z"/>
	<path class="st0" d="M32.4,26.9h-5.7c-0.4,0-0.8,0.3-0.8,0.8v4.7c0,0.4,0.3,0.8,0.8,0.8h5.7c0.4,0,0.8-0.3,0.8-0.8v-4.7
		C33.2,27.3,32.9,26.9,32.4,26.9z M31.7,31.6h-4.2v-3.2h4.2V31.6z"/>
	<path class="st0" d="M42.1,26.9h-5.7c-0.4,0-0.8,0.3-0.8,0.8v4.7c0,0.4,0.3,0.8,0.8,0.8h5.7c0.4,0,0.8-0.3,0.8-0.8v-4.7
		C42.9,27.3,42.6,26.9,42.1,26.9z M41.4,31.6h-4.2v-3.2h4.2V31.6z"/>
	<path class="st0" d="M13,35.6H7.3c-0.4,0-0.8,0.3-0.8,0.8V41c0,0.4,0.3,0.8,0.8,0.8H13c0.4,0,0.8-0.3,0.8-0.8v-4.7
		C13.8,36,13.4,35.6,13,35.6z M12.3,40.3H8.1v-3.2h4.2V40.3z"/>
	<path class="st0" d="M22.7,35.7H17c-0.4,0-0.8,0.3-0.8,0.8v4.7c0,0.4,0.3,0.8,0.8,0.8h5.7c0.4,0,0.8-0.3,0.8-0.8v-4.7
		C23.5,36,23.2,35.7,22.7,35.7z M22,40.3h-4.2v-3.2H22V40.3z"/>
	<path class="st0" d="M32.4,35.6h-5.7c-0.4,0-0.8,0.3-0.8,0.8V41c0,0.4,0.3,0.8,0.8,0.8h5.7c0.4,0,0.8-0.3,0.8-0.8v-4.7
		C33.2,36,32.9,35.6,32.4,35.6z M31.7,40.3h-4.2v-3.2h4.2V40.3z"/>
</g>
</svg>
