<?xml version="1.0" encoding="utf-8"?>
<!-- Generator: Adobe Illustrator 23.1.1, SVG Export Plug-In . SVG Version: 6.00 Build 0)  -->
<svg version="1.1" id="Layer_1" xmlns="http://www.w3.org/2000/svg" xmlns:xlink="http://www.w3.org/1999/xlink" x="0px" y="0px"
	 viewBox="0 0 50 50" style="enable-background:new 0 0 50 50;" xml:space="preserve">
<style type="text/css">
	.st0{fill:#0D4B34;}
</style>
<g>
	<path class="st0" d="M47.6,25.7l-2.4-1.7L41.9,17c-1.2-2.5-3.8-4.2-6.6-4.2H2.4c-0.4,0-0.7,0.3-0.7,0.7c0,0.1-0.5,5.1-0.5,9.3
		c0.1,3.9,0.4,6.2,0.4,6.6l0,1l-0.3,0.4c-0.1,0.1-0.2,0.3-0.2,0.5v1.9c0,0.4,0.3,0.8,0.8,0.8h5.3c0.4,1.9,2,3.3,4,3.3s3.6-1.4,4-3.3
		h20.6c0.4,1.9,2,3.3,4,3.3s3.6-1.4,4-3.3h2.1c1.7,0,3-1.3,3-3v-2.7C48.8,27.1,48.4,26.2,47.6,25.7z M11.1,35.6
		c-1.4,0-2.6-1.1-2.6-2.6c0-1.4,1.1-2.6,2.6-2.6s2.6,1.1,2.6,2.6C13.7,34.5,12.6,35.6,11.1,35.6z M39.7,35.6c-1.4,0-2.6-1.1-2.6-2.6
		c0-1.4,1.1-2.6,2.6-2.6s2.6,1.1,2.6,2.6C42.3,34.5,41.2,35.6,39.7,35.6z M47.3,30.8c0,0.8-0.7,1.5-1.5,1.5h-2.1
		c-0.4-1.9-2-3.3-4-3.3s-3.6,1.4-4,3.3H15.1c-0.4-1.9-2-3.3-4-3.3s-3.6,1.4-4,3.3H2.7v-0.8L3,31.1c0.1-0.1,0.2-0.3,0.2-0.5l0-1.3
		c0,0,0-0.1,0-0.1c0,0-0.4-2.4-0.4-6.5c-0.1-3.2,0.2-6.9,0.4-8.4h32.2c2.2,0,4.3,1.3,5.2,3.3l3.3,7.1c0.1,0.1,0.1,0.2,0.2,0.3
		l2.6,1.8c0.4,0.3,0.6,0.7,0.6,1.2V30.8z"/>
	<path class="st0" d="M24,16.7h-5.1c-0.4,0-0.8,0.3-0.8,0.8v7.1c0,0.4,0.3,0.8,0.8,0.8H24c0.4,0,0.8-0.3,0.8-0.8v-7.1
		C24.7,17.1,24.4,16.7,24,16.7z M23.2,23.8h-3.6v-5.6h3.6V23.8z"/>
	<path class="st0" d="M16.5,16.7h-5.1c-0.4,0-0.8,0.3-0.8,0.8v7.1c0,0.4,0.3,0.8,0.8,0.8h5.1c0.4,0,0.8-0.3,0.8-0.8v-7.1
		C17.3,17.1,16.9,16.7,16.5,16.7z M15.8,23.8h-3.6v-5.6h3.6V23.8z"/>
	<path class="st0" d="M32.8,16.7h-6.5c-0.4,0-0.8,0.3-0.8,0.8v12.7c0,0.4,0.3,0.8,0.8,0.8h6.5c0.4,0,0.8-0.3,0.8-0.8V17.5
		C33.5,17.1,33.2,16.7,32.8,16.7z M32,18.2v5.6h-5v-5.6H32z M27,29.5v-4.1h5v4.1H27z"/>
	<path class="st0" d="M9.1,16.7H4.3c-0.3,0-0.6,0.2-0.7,0.6c0,0.1-0.5,1.8-0.5,3.7s0.4,3.7,0.5,3.7c0.1,0.3,0.4,0.6,0.7,0.6h4.7
		c0.4,0,0.8-0.3,0.8-0.8v-7.1C9.8,17.1,9.5,16.7,9.1,16.7z M8.3,23.8H4.9c-0.1-0.6-0.3-1.7-0.3-2.8c0-1.1,0.2-2.2,0.3-2.8h3.4V23.8z
		"/>
	<path class="st0" d="M39.4,17.2c-0.1-0.3-0.4-0.4-0.7-0.4h-3.6c-0.4,0-0.8,0.3-0.8,0.8v7.1c0,0.4,0.3,0.8,0.8,0.8h6.8
		c0.3,0,0.5-0.1,0.6-0.3c0.1-0.2,0.2-0.5,0.1-0.7L39.4,17.2z M35.9,23.8v-5.6h2.4l2.5,5.6H35.9z"/>
</g>
</svg>
