<?xml version="1.0" encoding="utf-8"?>
<!-- Generator: Adobe Illustrator 23.1.1, SVG Export Plug-In . SVG Version: 6.00 Build 0)  -->
<svg version="1.1" id="Layer_1" xmlns="http://www.w3.org/2000/svg" xmlns:xlink="http://www.w3.org/1999/xlink" x="0px" y="0px"
	 viewBox="0 0 50 50" style="enable-background:new 0 0 50 50;" xml:space="preserve">
<style type="text/css">
	.st0{fill:#0D4B34;}
</style>
<g>
	<path class="st0" d="M24.9,27.4c0.4,0,0.8-0.3,0.8-0.8s-0.3-0.8-0.8-0.8c-2.4,0-4.6-1-6.2-2.8c-1.6-1.8-2.3-4.1-2.1-6.5
		c0.4-3.8,3.5-6.9,7.3-7.3c2.4-0.3,4.7,0.5,6.5,2.1c1.8,1.6,2.8,3.8,2.8,6.2v2.1c0,1-0.8,1.8-1.8,1.8s-1.8-0.8-1.8-1.8v-2.1
		c0-2.6-2.1-4.6-4.6-4.6s-4.6,2.1-4.6,4.6s2.1,4.6,4.6,4.6c1.3,0,2.5-0.6,3.4-1.4c0.5,1.3,1.7,2.2,3.1,2.2c1.8,0,3.3-1.5,3.3-3.3
		v-2.1c0-2.8-1.2-5.5-3.3-7.3c-2.1-1.9-4.9-2.8-7.7-2.4c-4.5,0.5-8.2,4.1-8.7,8.7c-0.3,2.8,0.6,5.6,2.4,7.7
		C19.5,26.2,22.1,27.4,24.9,27.4z M24.9,20.7c-1.7,0-3.1-1.4-3.1-3.1s1.4-3.1,3.1-3.1s3.1,1.4,3.1,3.1S26.7,20.7,24.9,20.7z"/>
	<path class="st0" d="M47,20.7C47,20.7,47,20.7,47,20.7c0-0.1,0-0.2-0.1-0.3c0,0,0,0,0-0.1c0-0.1-0.1-0.1-0.2-0.2c0,0,0,0,0,0
		l-6.2-5.5V6.3c0-1.9-1.6-3.5-3.5-3.5H13c-1.9,0-3.5,1.6-3.5,3.5v8.5l-6.1,5.4c0,0,0,0,0,0c-0.1,0.1-0.1,0.1-0.2,0.2c0,0,0,0,0,0.1
		c0,0.1,0,0.1-0.1,0.2c0,0,0,0,0,0.1c0,0,0,0,0,0v22.9c0,2,1.6,3.6,3.6,3.6h36.8c2,0,3.6-1.6,3.6-3.6L47,20.7
		C47,20.8,47,20.7,47,20.7z M45,20.7l-4.5,3.1v-7L45,20.7z M13,4.2h24c1.1,0,2,0.9,2,2v18.5l-14,9.6l-14.1-9.7V6.3
		C10.9,5.2,11.8,4.2,13,4.2z M9.4,23.7l-4.4-3l4.4-3.9V23.7z M45.5,43.7c0,1.2-0.9,2.1-2.1,2.1H6.6c-1.2,0-2.1-0.9-2.1-2.1V22.2
		l14.9,10.2L8.6,40.8c-0.3,0.3-0.4,0.7-0.1,1.1c0.1,0.2,0.4,0.3,0.6,0.3c0.2,0,0.3-0.1,0.5-0.2l11.2-8.7l3.9,2.7
		c0.3,0.2,0.6,0.2,0.8,0l3.7-2.5l11,8.6c0.1,0.1,0.3,0.2,0.5,0.2c0.2,0,0.4-0.1,0.6-0.3c0.3-0.3,0.2-0.8-0.1-1.1l-10.7-8.3
		l15.1-10.4V43.7z"/>
</g>
</svg>
