<?xml version="1.0" encoding="utf-8"?>
<!-- Generator: Adobe Illustrator 21.1.0, SVG Export Plug-In . SVG Version: 6.00 Build 0)  -->
<svg version="1.1" id="Layer_1" xmlns="http://www.w3.org/2000/svg" xmlns:xlink="http://www.w3.org/1999/xlink" x="0px" y="0px"
	 viewBox="0 0 50 50" style="enable-background:new 0 0 50 50;" xml:space="preserve">
<style type="text/css">
	.st0{fill:#0D4B34;}
</style>
<g>
	<path class="st0" d="M40.6,15.04h-4.35v-3.12C36.25,5.71,31.2,0.66,25,0.66S13.75,5.71,13.75,11.92v3.12H9.4
		c-0.41,0-0.75,0.34-0.75,0.75v21.84c0,2.24,1.14,4.28,3.05,5.46c1.89,1.17,3.58,2.08,5.01,2.71c2.05,0.9,4.41,1.7,6.02,2.21
		c1.01,0.32,1.78,1.08,1.8,1.1c0.14,0.14,0.33,0.22,0.54,0.22c0.01,0,0.02,0,0.02,0c0.21-0.01,0.41-0.1,0.55-0.26
		c0.01-0.01,0.66-0.75,1.65-1.07c1.61-0.51,3.97-1.3,6.02-2.2c1.44-0.63,3.12-1.54,5.01-2.71c1.91-1.18,3.05-3.23,3.05-5.46V15.79
		C41.35,15.37,41.02,15.04,40.6,15.04z M15.25,11.92c0-5.38,4.38-9.75,9.75-9.75s9.75,4.38,9.75,9.75v3.12H32.2
		c0.01-0.05,0.03-0.09,0.03-0.14v-2.39c0-3.99-3.24-7.23-7.23-7.23s-7.23,3.24-7.23,7.23v2.39c0,0.05,0.02,0.09,0.03,0.14h-2.55
		V11.92z M30.76,15.04H19.24c0.01-0.05,0.03-0.09,0.03-0.14v-2.39c0-3.16,2.57-5.73,5.73-5.73s5.73,2.57,5.73,5.73v2.39
		C30.73,14.95,30.75,14.99,30.76,15.04z M39.85,37.63c0,1.72-0.87,3.28-2.34,4.19c-1.83,1.13-3.45,2.01-4.82,2.62
		c-1.99,0.87-4.29,1.65-5.87,2.15c-0.77,0.24-1.39,0.66-1.79,1c-0.43-0.33-1.08-0.75-1.86-1c-1.58-0.5-3.88-1.28-5.87-2.15
		c-1.37-0.6-2.99-1.48-4.82-2.62c-1.46-0.91-2.34-2.47-2.34-4.19V16.54h29.71V37.63z"/>
	<path class="st0" d="M30.81,19.88H18.95l-1.35,5.47h1.82l-3.65,14.8h17.03l1.41-5.7h-7L30.81,19.88z M32.3,35.95l-0.67,2.7H17.7
		l3.19-12.94l0.46-1.86h-1.82l0.61-2.47h8.77l-3.14,12.71l-0.46,1.86h1.92H32.3z"/>
</g>
</svg>
