<?xml version="1.0" encoding="utf-8"?>
<!-- Generator: Adobe Illustrator 23.1.1, SVG Export Plug-In . SVG Version: 6.00 Build 0)  -->
<svg version="1.1" id="Layer_1" xmlns="http://www.w3.org/2000/svg" xmlns:xlink="http://www.w3.org/1999/xlink" x="0px" y="0px"
	 viewBox="0 0 50 50" style="enable-background:new 0 0 50 50;" xml:space="preserve">
<style type="text/css">
	.st0{fill:#0D4B34;}
</style>
<path class="st0" d="M47.5,36.1l-7.8-24.6c-0.4-1.3-1.8-2-3-1.6l-2.8,0.9c-0.6,0.2-1.1,0.6-1.4,1.2c-0.3,0.6-0.4,1.2-0.2,1.8v0
	l4.2,13.3c-0.4-0.7-1.2-1.2-2.1-1.2h-0.6C34,25.7,34,25.4,34,25v-2.9c0-1.3-1.1-2.4-2.4-2.4H4.2c-0.4,0-0.7,0.3-0.7,0.8
	s0.3,0.8,0.7,0.8h1c0.2,0.5,0.4,1.4,0.4,2.4c0,0.9-0.3,1.8-0.4,2.4H4.2c-0.4,0-0.7,0.3-0.7,0.8s0.3,0.8,0.7,0.8H7h0.6
	c0.2,0.5,0.4,1.4,0.4,2.4c0,0.9-0.3,1.8-0.4,2.4H7H3.1c-0.4,0-0.8,0.3-0.8,0.8s0.3,0.8,0.8,0.8h0.6c0.2,0.5,0.4,1.4,0.4,2.3
	c0,0,0,0,0,0.1s0,0,0,0.1c0,0.9-0.3,1.8-0.4,2.3H3.1c-0.4,0-0.8,0.3-0.8,0.8S2.7,40,3.1,40h27.5c1.3,0,2.4-1.1,2.4-2.4v-2.9
	c0-0.3-0.1-0.6-0.2-0.9h1.7c1.3,0,2.4-1.1,2.4-2.4v-2.9c0-0.1,0-0.1,0-0.2l3.3,10.3c0.3,1,1.3,1.7,2.3,1.7c0.2,0,0.5,0,0.7-0.1
	l2.8-0.9C47.2,38.7,47.9,37.4,47.5,36.1z M31.6,21.2c0.5,0,0.9,0.4,0.9,0.9V25c0,0.5-0.4,0.9-0.9,0.9h-1h-0.9v-1.6h0.4
	c0.4,0,0.8-0.3,0.8-0.8s-0.3-0.8-0.8-0.8H29h-3.3H7c-0.1-0.6-0.2-1.2-0.3-1.6H31.6z M26.4,24.3h1.8v2.3l-0.6-0.3
	c-0.1,0-0.2-0.1-0.3-0.1s-0.2,0-0.3,0.1l-0.6,0.3V24.3z M6.7,26c0.1-0.5,0.3-1,0.3-1.6h17.9V26h-1.5H7H6.7z M9.5,30.6h3v1.6h-0.4
	H9.2C9.3,31.8,9.4,31.2,9.5,30.6z M15.8,32.9l-0.6-0.3c-0.2-0.1-0.4-0.1-0.6,0L14,32.9v-2.3h1.8V32.9z M31.5,34.6v2.9
	c0,0.5-0.4,0.9-0.9,0.9H5.3c0.1-0.5,0.3-1,0.3-1.6h23.1c0.4,0,0.8-0.3,0.8-0.8s-0.3-0.8-0.8-0.8H5.6c-0.1-0.6-0.2-1.2-0.3-1.6H7h5.1
	h0.4V34c0,0.3,0.1,0.5,0.3,0.6s0.5,0.2,0.7,0.1l1.3-0.6l1.3,0.6c0.1,0,0.2,0.1,0.3,0.1c0.1,0,0.3,0,0.4-0.1c0.2-0.1,0.3-0.4,0.3-0.6
	v-0.3h0.3h13C31.1,33.7,31.5,34.1,31.5,34.6z M35.4,31.3c0,0.5-0.4,0.9-0.9,0.9h-3.9h-13h-0.3v-1.6h15.3c0.4,0,0.8-0.3,0.8-0.8
	s-0.3-0.8-0.8-0.8H16.6h-3.3H9.5c-0.1-0.6-0.2-1.2-0.3-1.6h14.3h1.5v0.3c0,0.3,0.1,0.5,0.3,0.6c0.2,0.1,0.5,0.2,0.7,0.1l1.3-0.6
	l1.3,0.6c0.1,0,0.2,0.1,0.3,0.1c0.1,0,0.3,0,0.4-0.1c0.2-0.1,0.3-0.4,0.3-0.6v-0.3h0.9h1h2.8c0.5,0,0.9,0.4,0.9,0.9V31.3z
	 M39.4,31.2l4.5-1.4l0.5,1.7l-4.5,1.4L39.4,31.2z M36.4,21.7l4.6-1.4l2.6,8.1l-4.5,1.4L36.4,21.7z M35.4,18.5l4.6-1.4l0.5,1.7
	l-4.6,1.4L35.4,18.5z M33.8,12.7c0.1-0.2,0.3-0.4,0.5-0.5l2.8-0.9c0.1,0,0.2,0,0.3,0c0.4,0,0.8,0.3,0.9,0.6l1.2,3.7l-4.6,1.4
	l-1.2-3.7c0,0,0,0,0,0C33.7,13.2,33.7,13,33.8,12.7z M45.5,37.7l-2.8,0.9c-0.5,0.2-1-0.1-1.2-0.6l-1.2-3.7l4.5-1.4l1.2,3.7
	C46.2,37,46,37.6,45.5,37.7z"/>
</svg>
