<?xml version="1.0" encoding="utf-8"?>
<!-- Generator: Adobe Illustrator 23.1.1, SVG Export Plug-In . SVG Version: 6.00 Build 0)  -->
<svg version="1.1" id="Layer_1" xmlns="http://www.w3.org/2000/svg" xmlns:xlink="http://www.w3.org/1999/xlink" x="0px" y="0px"
	 viewBox="0 0 50 50" style="enable-background:new 0 0 50 50;" xml:space="preserve">
<style type="text/css">
	.st0{fill:#0D4B34;}
</style>
<g>
	<path class="st0" d="M33.6,9.1C33.3,8,32.1,7.4,31,7.7l-1.3,0.4c-0.5,0.2-1,0.5-1.2,1c-0.3,0.5-0.3,1.1-0.1,1.6l0.2,0.6L5.2,26
		c-0.5-0.2-1-0.3-1.6-0.1L3,26.1c-0.5,0.2-1,0.5-1.2,1c-0.3,0.5-0.3,1.1-0.1,1.6l2,6.1c0.3,0.9,1.1,1.5,2,1.5c0.2,0,0.4,0,0.6-0.1
		L6.9,36c0.5-0.2,1-0.6,1.2-1l7.6-0.5l1.1,3.5c0.9,2.7,3.4,4.5,6.1,4.5c0.7,0,1.3-0.1,2-0.3c3.4-1.1,5.2-4.8,4.1-8.1L29,33.4
		l6.6-0.5l0.2,0.6c0.3,0.9,1.1,1.5,2,1.5c0.2,0,0.4,0,0.6-0.1l1.3-0.4c1.1-0.4,1.7-1.5,1.3-2.7L33.6,9.1z M6.4,34.5l-0.6,0.2
		c-0.2,0-0.3,0-0.5,0s-0.2-0.2-0.3-0.4l-2-6.1C3,28,3.2,27.6,3.5,27.5l0.6-0.2c0.2,0,0.3,0,0.5,0s0.2,0.2,0.3,0.4l2,6.1
		C6.9,34.1,6.7,34.4,6.4,34.5z M27.7,34.4c0.4,1.3,0.3,2.6-0.3,3.8c-0.6,1.2-1.6,2.1-2.9,2.5c-2.6,0.8-5.4-0.6-6.2-3.2l-1-3.2
		l10.2-0.7L27.7,34.4z M16.3,32.8c-0.1,0-0.2,0-0.3,0c0,0,0,0,0,0l-7.7,0.5c0,0,0-0.1,0-0.1l-2-6.1c0,0,0-0.1,0-0.1L29,12.9
		l6.1,18.6L16.3,32.8z M39.2,33.1L38,33.5c-0.2,0-0.3,0-0.5,0s-0.2-0.2-0.3-0.4l-7.4-22.8c0-0.2,0-0.3,0-0.5
		c0.1-0.1,0.2-0.2,0.4-0.3l1.3-0.4c0.3-0.1,0.7,0.1,0.8,0.4l7.4,22.8C39.7,32.7,39.5,33,39.2,33.1z"/>
	<path class="st0" d="M40.9,19.3c0.1,0.3,0.4,0.5,0.7,0.5c0.1,0,0.2,0,0.2,0l5.5-1.8c0.4-0.1,0.6-0.6,0.5-0.9
		c-0.1-0.4-0.6-0.6-0.9-0.5l-5.5,1.8C41,18.5,40.8,18.9,40.9,19.3z"/>
	<path class="st0" d="M47.8,23.2l-5.7-1c-0.4-0.1-0.8,0.2-0.9,0.6c-0.1,0.4,0.2,0.8,0.6,0.9l5.7,1c0,0,0.1,0,0.1,0
		c0.4,0,0.7-0.3,0.7-0.6C48.5,23.7,48.2,23.3,47.8,23.2z"/>
	<path class="st0" d="M39.6,16.5c0.2,0,0.4-0.1,0.5-0.2l4.1-4.2c0.3-0.3,0.3-0.8,0-1.1c-0.3-0.3-0.8-0.3-1.1,0L39,15.2
		c-0.3,0.3-0.3,0.8,0,1.1C39.2,16.4,39.4,16.5,39.6,16.5z"/>
</g>
</svg>
