<?xml version="1.0" encoding="utf-8"?>
<!-- Generator: Adobe Illustrator 23.1.1, SVG Export Plug-In . SVG Version: 6.00 Build 0)  -->
<svg version="1.1" id="Layer_1" xmlns="http://www.w3.org/2000/svg" xmlns:xlink="http://www.w3.org/1999/xlink" x="0px" y="0px"
	 viewBox="0 0 50 50" style="enable-background:new 0 0 50 50;" xml:space="preserve">
<style type="text/css">
	.st0{fill:#0D4B34;}
</style>
<g>
	<path class="st0" d="M18.8,33C18.8,33,18.8,33,18.8,33c0.3,0,0.5-0.1,0.6-0.4c0.4-0.6,9.4-15.5,9.4-21c0-5.8-4.7-10.4-10.4-10.4
		S8,6,8,11.7c0,5.5,9.8,20.4,10.2,21C18.3,32.9,18.5,33,18.8,33z M18.4,2.8c4.9,0,8.9,4,8.9,8.9c0,4.3-6.5,15.7-8.6,19.2
		C16.5,27.4,9.5,16,9.5,11.7C9.5,6.8,13.5,2.8,18.4,2.8z"/>
	<path class="st0" d="M24.7,11.7c0-3.5-2.8-6.3-6.3-6.3c-3.5,0-6.3,2.8-6.3,6.3c0,3.5,2.8,6.3,6.3,6.3C21.9,18,24.7,15.2,24.7,11.7z
		 M18.4,16.5c-2.6,0-4.8-2.2-4.8-4.8c0-2.6,2.2-4.8,4.8-4.8c2.6,0,4.8,2.2,4.8,4.8C23.2,14.3,21,16.5,18.4,16.5z"/>
	<path class="st0" d="M45.7,21.1V7.1c0-0.2-0.1-0.4-0.3-0.6c-0.2-0.1-0.4-0.2-0.6-0.2L35,8.1l-5.1-0.9c-0.4-0.1-0.8,0.2-0.9,0.6
		c-0.1,0.4,0.2,0.8,0.6,0.9l4.6,0.8v15.3l-3.4,0.3L29,18.5c-0.1-0.4-0.5-0.6-0.9-0.5c-0.4,0.1-0.6,0.5-0.5,0.9l2,7.2
		c0.1,0.3,0.4,0.5,0.7,0.5c0,0,0,0,0.1,0l3.9-0.3v5.5l-8.5,1.2V31v-4.8c0-0.4-0.3-0.8-0.8-0.8s-0.8,0.3-0.8,0.8V31v2.3l-8.5,3.5
		v-5.8c0,0,0,0,0-0.1c0,0,0,0,0-0.1c0,0,0-0.1,0-0.1c0,0,0-0.1-0.1-0.1c0,0,0-0.1-0.1-0.1c0,0-0.1-0.1-0.1-0.1c0,0-0.1-0.1-0.1-0.1
		c0,0-0.1,0-0.1-0.1c0,0-0.1,0-0.1,0c0,0-0.1,0-0.1,0c0,0,0,0-0.1,0c0,0,0,0-0.1,0l-9.1,1.4V8l1,0.2C7.2,8.3,7.6,8,7.6,7.6
		C7.7,7.2,7.4,6.8,7,6.7L5.2,6.4c-0.2,0-0.4,0-0.6,0.2C4.4,6.7,4.3,6.9,4.3,7.1v39.1c0,0.4,0.3,0.7,0.6,0.7l10,1.7c0,0,0.1,0,0.1,0
		s0.1,0,0.1,0L25,47l9.9,1.7c0,0,0.1,0,0.1,0s0.1,0,0.1,0l10-1.7c0.4-0.1,0.6-0.4,0.6-0.7V21.1C45.7,21.1,45.7,21.1,45.7,21.1z
		 M35.7,25.9l8.5-3.7v6.7l-8.5,2.5V25.9z M44.2,20.6l-8.5,3.7V9.5L44.2,8V20.6z M14.3,31.8v5.4l-8.5,1.2v-5.3L14.3,31.8z M5.8,39.9
		l8.5-1.2v8.4l-8.5-1.5V39.9z M15.8,38.4l8.5-3.5v10.7l-8.5,1.5V38.4z M25.8,34.5l8.5-1.2v13.8l-8.5-1.5V34.5z M35.7,47.1V33
		l8.5-2.5v15.1L35.7,47.1z"/>
</g>
</svg>
