<?xml version="1.0" encoding="utf-8"?>
<!-- Generator: Adobe Illustrator 23.1.1, SVG Export Plug-In . SVG Version: 6.00 Build 0)  -->
<svg version="1.1" id="Layer_1" xmlns="http://www.w3.org/2000/svg" xmlns:xlink="http://www.w3.org/1999/xlink" x="0px" y="0px"
	 viewBox="0 0 50 50" style="enable-background:new 0 0 50 50;" xml:space="preserve">
<style type="text/css">
	.st0{fill:#0D4B34;}
</style>
<g>
	<path class="st0" d="M27.7,11.2l-3.3,2.4l-1.6,1.2l1.6,1.2c0,0,1.1,0.8,2,1.7c-2.4,3.3-6.1,5.2-10.2,5.2c-1.3,0-2.6-0.2-3.9-0.6
		c-0.1-1.1-0.1-2.2-0.1-3.3l0-1.5l-1.5,0l-3.9,0C14,13.7,19.3,12.4,27.7,11.2 M32.6,9c-13.4,1.6-19.5,2.8-31,9.5l0.1,0.3l0.9,0
		c-0.1,0.9-0.2,3.2,0,6.6c-1.3,3.7,0,6.2,1.1,9c0.2-2.8,0.2-6-0.7-9.1c-0.2-3.4,0-5.7,0.1-6.5l7.6,0.1c0,1.5,0.1,3,0.2,4.5
		c1.8,0.6,3.5,0.9,5.3,0.9c4.9,0,9.4-2.5,12.1-6.8c-1-1.1-3-2.7-3-2.7l7.4-5.4L32.6,9L32.6,9z"/>
	<path class="st0" d="M37.1,17.4c3,0,5.4,0.6,7,1.9c1.8,1.4,2.7,3.3,2.7,6.1v14h-4.5V26.3c0-1.8-0.5-6.1-5.3-6.1
		c-4.8,0-5.3,4.3-5.3,6.1v13.2h-4.5V26.3c0-1.3-0.3-3.8-2.1-5.2c0.8-0.7,1.6-1.5,2.3-2.4c0.4,0.2,0.7,0.5,1,0.8l1.2,1.3l1.1-1.4
		C31.8,18.1,34,17.4,37.1,17.4 M37.1,15.9c-3.6,0-6.2,0.9-7.5,2.6c-1.2-1.3-2.8-2.1-5-2.4c0.3,0.3,1.1,0.9,1.8,1.6
		c-1.3,1.8-3.1,3.2-5,4.1c0.2,0,0.5-0.1,0.7-0.1c2.5,0,3.7,1.5,3.7,4.6V41h7.5V26.3c0-3.1,1.3-4.6,3.8-4.6c0,0,0,0,0,0
		c2.5,0,3.8,1.5,3.8,4.6V41h7.5V25.4c0-3.2-1.1-5.6-3.3-7.3C43.1,16.7,40.4,15.9,37.1,15.9L37.1,15.9z"/>
	<path class="st0" d="M12.4,23.9c1.3,0.3,2.5,0.5,3.8,0.5c0.2,0,0.5,0,0.7,0c-0.1,0.6-0.2,1.2-0.2,2v13.2h-4.5v-14
		C12.3,24.9,12.3,24.3,12.4,23.9 M12.3,20.1c-1,1.4-1.4,3.2-1.4,5.3V41h7.5V26.3c0-1.9,0.5-3.2,1.5-4c-1.1,0.3-2.3,0.5-3.5,0.5
		c-1.3,0-2.6-0.2-3.9-0.6C12.3,21.6,12.3,20.8,12.3,20.1L12.3,20.1z"/>
</g>
</svg>
