<?xml version="1.0" encoding="utf-8"?>
<!-- Generator: Adobe Illustrator 21.1.0, SVG Export Plug-In . SVG Version: 6.00 Build 0)  -->
<svg version="1.1" id="Layer_1" xmlns="http://www.w3.org/2000/svg" xmlns:xlink="http://www.w3.org/1999/xlink" x="0px" y="0px"
	 viewBox="0 0 40 40" style="enable-background:new 0 0 40 40;" xml:space="preserve">
<style type="text/css">
	.st0{fill:#0D4B34;}
</style>
<g id="Group_348" transform="translate(-332.828 -428.626)">
	<path class="st0" d="M367.2,439.8h-28.7c-0.4,0-0.8-0.3-0.8-0.8s0.3-0.8,0.8-0.8h28.7c0.4,0,0.8,0.3,0.8,0.8
		S367.6,439.8,367.2,439.8z"/>
	<path class="st0" d="M367.2,449.4h-28.7c-0.4,0-0.8-0.3-0.8-0.8s0.3-0.8,0.8-0.8h28.7c0.4,0,0.8,0.3,0.8,0.8
		S367.6,449.4,367.2,449.4z"/>
	<path class="st0" d="M367.2,459h-28.7c-0.4,0-0.8-0.3-0.8-0.8s0.3-0.8,0.8-0.8h28.7c0.4,0,0.8,0.3,0.8,0.8S367.6,459,367.2,459z"/>
</g>
</svg>
