<?xml version="1.0" encoding="utf-8"?>
<!-- Generator: Adobe Illustrator 21.1.0, SVG Export Plug-In . SVG Version: 6.00 Build 0)  -->
<svg version="1.1" id="Layer_1" xmlns="http://www.w3.org/2000/svg" xmlns:xlink="http://www.w3.org/1999/xlink" x="0px" y="0px"
	 viewBox="0 0 40 40" style="enable-background:new 0 0 40 40;" xml:space="preserve">
<style type="text/css">
	.st0{fill:#0D4B34;}
</style>
<g id="Group_351" transform="translate(-724.27 -415.942)">
	<g id="Group_350" transform="translate(725.245 416.744)">
		<path class="st0" d="M31.1,35.5c-1.1,0-2.2-0.4-3.1-1.3l-6.8-6.8C21,27.2,21,27,21,26.8V26c0-0.2,0.1-0.4,0.2-0.5l0.5-0.5
			L8.4,11.8c-0.1,0.1-0.3,0.1-0.5,0.1L7,11.7c-0.2,0-0.4-0.1-0.5-0.3L3,6.7C2.8,6.4,2.8,6,3.1,5.7l2.6-2.6C6,2.8,6.4,2.8,6.7,3
			l4.7,3.6c0.2,0.1,0.3,0.3,0.3,0.5L11.9,8c0,0.2,0,0.3-0.1,0.5L25,21.8l0.5-0.5c0.1-0.1,0.3-0.2,0.5-0.2h0.8c0.2,0,0.4,0.1,0.6,0.2
			l6.8,6.8c0.8,0.8,1.3,1.9,1.3,3.1c0,1.2-0.5,2.2-1.3,3.1C33.3,35,32.2,35.5,31.1,35.5z M22.5,26.6l6.6,6.6c1.1,1.1,2.9,1.1,4,0
			c0.5-0.5,0.8-1.2,0.8-2s-0.3-1.5-0.8-2l-6.6-6.6h-0.2l-0.8,0.8c-0.3,0.3-0.8,0.3-1.1,0L10.2,9.1C10,8.9,9.9,8.8,9.9,8.6
			S10,8.2,10.2,8l0.1-0.1V7.7l-4-3L4.6,6.3l3,4h0.2l0.1-0.1C8.2,10,8.7,10,9,10.3l14.3,14.3c0.3,0.3,0.3,0.8,0,1.1l-0.8,0.8V26.6z"
			/>
		<path class="st0" d="M24,26.8c-0.2,0-0.4-0.1-0.5-0.2c-0.3-0.3-0.3-0.8,0-1.1l1.9-1.9c0.3-0.3,0.8-0.3,1.1,0s0.3,0.8,0,1.1
			l-1.9,1.9C24.4,26.7,24.2,26.8,24,26.8z"/>
	</g>
	<path class="st0" d="M734,452.2c-0.7,0-1.4-0.1-2.1-0.4c-0.1,0-0.2-0.1-0.3-0.2l-0.3-0.3c-0.1-0.1-0.2-0.3-0.2-0.5s0.1-0.4,0.2-0.5
		l3.5-3.5l-1.6-1.6l-3.5,3.5c-0.3,0.3-0.8,0.3-1.1,0l-0.3-0.3c-0.1-0.1-0.1-0.2-0.2-0.3c-0.5-1.4-0.5-2.9,0.1-4.3
		c0.6-1.5,1.8-2.7,3.3-3.4c1.3-0.6,2.8-0.7,4.2-0.2l4-4c0.3-0.3,0.8-0.3,1.1,0s0.3,0.8,0,1.1l-4.4,4.4c-0.2,0.2-0.5,0.3-0.8,0.2
		c-1.1-0.5-2.4-0.4-3.5,0.1s-2,1.4-2.5,2.6c-0.3,0.8-0.4,1.7-0.2,2.5l3.3-3.3c0.3-0.3,0.8-0.3,1.1,0l2.7,2.7c0.3,0.3,0.3,0.8,0,1.1
		l-3.3,3.3c2.2,0.4,4.4-0.8,5.2-3c0.4-1.1,0.4-2.2-0.1-3.2c-0.1-0.3,0-0.6,0.2-0.8l4.4-4.4c0.3-0.3,0.8-0.3,1.1,0s0.3,0.8,0,1.1
		l-4,4c0.4,1.2,0.3,2.6-0.1,3.8C738.9,450.6,736.6,452.2,734,452.2z"/>
	<path class="st0" d="M748.2,435.8c-0.2,0-0.4-0.1-0.5-0.2c-0.3-0.3-0.3-0.8,0-1.1l4.2-4.2c0.2-0.2,0.5-0.3,0.8-0.2
		c2.4,0.9,5.1-0.2,6-2.6c0.3-0.8,0.4-1.7,0.2-2.5l-3.3,3.3c-0.1,0.1-0.3,0.2-0.5,0.2l0,0c-0.2,0-0.4-0.1-0.5-0.2l-2.7-2.7
		c-0.3-0.3-0.3-0.8,0-1.1l3.3-3.3c-2.2-0.4-4.4,0.8-5.2,3c-0.4,1.1-0.4,2.2,0.1,3.3c0.1,0.3,0,0.6-0.2,0.8l-4.2,4.2
		c-0.3,0.3-0.8,0.3-1.1,0s-0.3-0.8,0-1.1l3.9-3.9c-0.4-1.3-0.3-2.6,0.1-3.8c1.1-3.2,4.7-4.8,7.8-3.7c0.1,0,0.2,0.1,0.3,0.2l0.3,0.3
		c0.1,0.1,0.2,0.3,0.2,0.5s-0.1,0.4-0.2,0.5l-3.5,3.5l1.6,1.6l3.5-3.5c0.3-0.3,0.8-0.3,1.1,0l0.3,0.3c0.1,0.1,0.1,0.2,0.2,0.3
		c0.5,1.4,0.5,2.9-0.1,4.3c-1.2,3-4.5,4.5-7.5,3.6l-3.9,3.9C748.5,435.7,748.3,435.8,748.2,435.8z"/>
</g>
</svg>
