<?xml version="1.0" encoding="utf-8"?>
<!-- Generator: Adobe Illustrator 23.1.1, SVG Export Plug-In . SVG Version: 6.00 Build 0)  -->
<svg version="1.1" id="Layer_1" xmlns="http://www.w3.org/2000/svg" xmlns:xlink="http://www.w3.org/1999/xlink" x="0px" y="0px"
	 viewBox="0 0 40 40" style="enable-background:new 0 0 40 40;" xml:space="preserve">
<style type="text/css">
	.st0{fill:#0D4B34;}
</style>
<g>
	<path class="st0" d="M16.9,23.4c-3.6,0-6.5-2.9-6.5-6.5c0-0.4-0.3-0.8-0.8-0.8s-0.8,0.3-0.8,0.8c0,4.4,3.6,8,8,8
		c0.4,0,0.8-0.3,0.8-0.8S17.3,23.4,16.9,23.4z"/>
	<path class="st0" d="M33.8,32.8l-8.7-8.7c1.7-1.9,2.7-4.4,2.7-7.2c0-6-4.9-10.9-10.9-10.9C10.9,6,6,10.9,6,16.9s4.9,10.9,10.9,10.9
		c2.7,0,5.3-1,7.2-2.7l8.7,8.7c0.1,0.1,0.3,0.2,0.5,0.2s0.4-0.1,0.5-0.2C34.1,33.5,34.1,33.1,33.8,32.8z M7.5,16.9
		c0-5.2,4.2-9.4,9.4-9.4s9.4,4.2,9.4,9.4s-4.2,9.4-9.4,9.4C11.7,26.4,7.5,22.1,7.5,16.9z"/>
</g>
</svg>
